<svg width="99" height="99" viewBox="0 0 99 99" fill="none" xmlns="http://www.w3.org/2000/svg">
<path d="M38.5838 28.7982C34.7676 26.8073 31.0427 26.1437 28.6915 27.8128C27.0302 28.9962 26.2954 31.2005 26.2598 33.8673C22.3903 30.1471 19.2614 25.727 17.0389 20.841V3.09375H9.95266V20.8472H9.98823C8.76775 25.0485 7.72516 29.9753 7.73444 34.6051C7.74681 43.9483 15.0635 48.6508 21.0159 48.6508C21.101 48.6508 21.1783 48.6322 21.2634 48.6307C22.2577 48.62 23.2445 48.4557 24.1885 48.1434L24.2427 48.1217C25.2188 47.783 26.0943 47.2911 26.7919 46.6073C26.7919 46.6073 25.7586 45.8788 24.221 44.3984C25.1847 44.468 26.2397 44.4448 27.2931 44.3303C28.099 48.1388 29.8424 52.2148 31.2299 54.0958L61.6941 95.9062H69.133L41.5677 55.836C43.6977 55.788 45.7551 54.9481 47.6639 53.5899C52.3742 50.2456 54.4067 45.1115 49.0329 37.801C47.7853 36.1313 46.3731 34.5911 44.8177 33.2037C46.7095 34.404 49.0298 36.3949 51.5543 39.6727C60.9872 51.8977 91.2657 93.7128 91.2657 93.7128V88.2291C91.2657 88.2291 63.5643 50.0925 54.1051 37.8288C47.585 29.3752 41.1732 27.4864 38.5838 28.7982ZM14.9862 40.9535C16.5176 44.8207 22.8319 46.6584 22.8319 46.6584C18.8224 48.9122 8.91934 43.4966 8.90697 34.6036C8.90078 30.0001 9.97276 25.0377 11.2118 20.8457H13.0665C16.909 34.0699 26.2567 37.487 26.2567 37.487C22.3029 37.487 17.6638 36.3005 17.6638 36.3005C21.5913 40.7973 29.9538 41.6914 29.9538 41.6914C22.6324 43.2878 14.9862 40.9535 14.9862 40.9535ZM47.2911 38.5311C52.1096 45.079 50.0585 48.7699 48.4869 49.8867C46.9183 51.002 47.0483 48.6786 42.2297 42.1276C37.4081 35.5812 30.3374 29.7588 31.909 28.6435C33.4791 27.5313 42.4726 31.9832 47.2911 38.5311ZM87.1603 35.9092C87.5037 36.4614 91.2657 43.0635 91.2657 43.065V36.5697C91.2657 36.5697 90.2355 34.8743 89.8812 34.3143C85.8021 27.7943 80.4221 24.207 77.2139 24.0322C76.4853 23.9982 75.9331 24.1405 75.5247 24.3416C72.1556 22.2796 68.7958 21.4335 66.494 22.7948C63.7777 24.4004 63.1249 28.7085 63.9046 33.4837C62.913 37.5999 65.0137 45.1486 66.7508 47.9841L91.2657 86.7023V75.9933L76.5673 50.4575C78.5519 50.5457 80.5335 49.9115 82.4191 48.7977C87.168 45.9886 89.5255 41.2722 85.0086 33.8951C84.067 32.3768 82.9879 30.9481 81.7849 29.6273C83.4555 30.9994 85.3473 33.015 87.1603 35.9092ZM83.5035 45.3435C81.9241 46.2763 82.2381 44.0767 78.1915 37.4715C74.1433 30.8648 67.9017 24.7717 69.481 23.8373C71.0635 22.9015 79.248 27.8468 83.2915 34.452C87.3413 41.0587 85.0937 44.4061 83.5035 45.3435Z" fill="#F4CC82"/>
<path d="M22.6509 65.0832L22.6725 65.1111C18.8084 63.4157 15.1037 63.0058 12.9535 64.8001C10.5388 66.8204 10.6115 71.181 12.1708 75.769C11.88 79.9889 15.198 87.0937 17.3822 89.6136L22.4807 95.9063H30.8075L26.6681 90.5401C28.9466 90.5077 31.0736 89.5007 32.9732 87.912C37.1946 84.3805 38.7384 79.347 33.0613 72.7944C31.8563 71.4022 30.4394 70.0874 28.925 68.9056C30.789 69.9714 33.0876 71.7209 35.5301 74.4418C40.2125 79.661 54.1158 95.9063 54.1158 95.9063H58.1625C58.1625 95.9063 42.6427 77.6671 37.9324 72.4216C32.3095 66.1568 25.6054 62.9331 22.6509 65.0832ZM31.4634 73.6173C36.548 79.4893 34.8805 83.1507 33.4759 84.3325C32.0682 85.5051 32.0141 83.2853 26.9264 77.4134C21.8418 71.5414 14.6752 66.5311 16.0766 65.3508C17.4812 64.1737 26.3757 67.7485 31.4634 73.6173Z" fill="#F4CC82"/>
</svg>
