<svg width="123" height="123" viewBox="0 0 123 123" fill="none" xmlns="http://www.w3.org/2000/svg">
<path d="M59.1732 106.79C54.1815 105.809 49.1931 104.166 44.2082 101.859C39.2301 99.5531 34.7714 96.3432 30.832 92.2295C26.8926 88.1158 23.6928 83.0472 21.2328 77.0236C18.7728 70.9966 17.5428 63.7857 17.5428 55.391V54.5607C17.5428 53.628 17.8281 52.8763 18.3987 52.3057C18.9727 51.7317 19.7244 51.4447 20.6537 51.4447H21.2892C24.8562 51.4447 29.0929 52.2972 33.9992 54.0021C38.909 55.7036 43.0773 57.7963 46.5042 60.2802C46.9142 54.5505 48.2006 48.5679 50.3633 42.3325C52.5261 36.0971 55.309 30.5177 58.712 25.5942C59.4739 24.5351 60.4032 24.0055 61.5 24.0055C62.5967 24.0055 63.5261 24.5351 64.288 25.5942C67.691 30.5142 70.4756 36.1261 72.6417 42.4299C74.8011 48.7302 76.0874 54.7452 76.5009 60.475C79.7262 58.1858 83.7271 56.158 88.5036 54.3916C93.2801 52.6252 97.6176 51.6429 101.516 51.4447L102.423 51.3474C103.311 51.2825 104.072 51.5677 104.704 52.2032C105.336 52.8387 105.619 53.599 105.554 54.4839L105.452 55.5857C104.994 62.2756 103.88 68.3214 102.11 73.7231C100.341 79.1215 97.8806 83.9099 94.7305 88.0885C91.5803 92.2705 87.7109 95.858 83.1224 98.851C78.5372 101.847 73.2226 104.328 67.1785 106.293C66.0681 106.661 64.7338 106.878 63.1758 106.943C61.6178 107.012 60.2853 106.96 59.1783 106.79M63.2169 102.244C62.2773 88.15 58.0269 77.4524 50.4658 70.151C42.9048 62.8496 33.6593 58.343 22.7293 56.6312C22.5585 56.6312 22.5585 56.6312 22.7293 56.6312C23.6689 71.0667 28.0457 81.9146 35.8596 89.175C43.6735 96.4354 52.7926 100.792 63.2169 102.244C63.3877 102.329 63.3877 102.351 63.2169 102.31C63.046 102.269 63.046 102.247 63.2169 102.244ZM51.5062 63.8062C53.4127 65.3882 55.256 67.3476 57.0361 69.6846C58.8162 72.0216 60.3041 74.2595 61.5 76.3984C62.6514 74.2595 64.1274 72.0216 65.928 69.6846C67.7286 67.3476 69.5838 65.3882 71.4937 63.8062C71.4527 58.6095 70.5576 53.1326 68.8082 47.3755C67.0555 41.6218 64.6194 36.1261 61.5 30.8884C58.3806 36.1261 55.9445 41.6065 54.1917 47.3294C52.4424 53.0523 51.5472 58.5446 51.5062 63.8062ZM64.1803 82.4356C65.2053 85.169 66.0476 87.9279 66.707 90.7125C67.3698 93.4971 67.9148 96.7685 68.3419 100.527C72.271 99.1739 76.0755 97.3579 79.7552 95.079C83.4316 92.8001 86.7064 89.9028 89.5798 86.387C92.4499 82.8678 94.8552 78.6773 96.7958 73.8154C98.7331 68.95 99.8914 63.222 100.271 56.6312C100.271 56.4604 100.271 56.4604 100.271 56.6312C91.9784 57.8271 84.6035 60.7432 78.146 65.3796C71.6885 70.0126 67.0333 75.698 64.1803 82.4356Z" fill="#F4CC82"/>
</svg>
