<svg width="96" height="96" viewBox="0 0 96 96" fill="none" xmlns="http://www.w3.org/2000/svg">
<path d="M39.6187 15.1669C22.9687 15.2212 10.5393 20.5687 3.54183 27.1875L5.85933 29.625C17.5181 18.63 48.45 10.2 91.0499 33.15L92.6625 30.1875C72.2625 19.2 54.3 15.1181 39.6187 15.1669ZM21.45 31.0687C10.9537 35.175 6.23246 43.3688 3.32996 48.7688L6.30371 50.3813C9.16121 45.0375 13.2656 37.8937 22.6875 34.2187C32.1 30.5437 47.1562 30.3 72.0187 39.975L73.2562 36.825C56.0625 30.7125 38.1937 24.675 21.45 31.0687ZM70.2749 45.3187C36.9937 62.475 21.525 57.5438 4.18871 53.0813L3.34871 56.3625C6.34121 57.1313 9.33745 57.9188 12.4218 58.5938C8.79183 61.1437 7.01808 61.8188 4.88621 63.2063C9.69558 63 12.795 61.4813 16.0818 60.0938C13.7231 63 11.6662 65.9062 7.45683 68.9812C12.5231 67.6312 17.4018 66.1313 21.075 63.5813C18.7368 67.3313 15.8775 70.9875 12.6581 74.5688C18.1762 72.8438 22.35 68.6812 26.6812 64.5562C26.625 68.1375 24.9562 71.7188 23.775 75.3C27.7125 71.6813 29.4 69.075 31.7812 65.4563C31.5562 70.9313 33.0937 75.3563 34.4437 80.8313C35.2875 75.6 36.225 70.35 36.225 65.2875C39.0375 69.975 42.8062 74.25 47.55 78.0562C45.0187 73.65 42.4875 69.2625 41.1562 64.6875C45.9937 69.2812 51.0374 73.7438 57.0937 77.475C53.0625 73.0688 49.2375 68.6063 46.7625 63.8438C51.1125 67.9313 55.4812 72.0188 62.7562 74.3813C57.4875 70.7625 54.1124 66.6562 51.6374 62.325C56.6437 66.525 62.25 70.2563 69.0187 73.05C63.0374 68.925 59.6624 64.8 57.3562 60.675C62.3062 64.7625 67.9687 67.4625 72.8999 70.1625C68.9999 66.5625 64.7437 63.1125 62.6999 58.8375C66.7312 62.3437 71.4937 63.8625 76.1999 65.4937C71.8312 62.5875 69.3187 60.6188 66.7124 57.1875C70.8749 59.2875 74.3437 60.1125 79.35 61.35C76.0874 59.5313 72.6187 57.0375 70.3875 54.8813C75.3937 56.1375 80.8875 56.3438 86.0624 56.2688C81.3187 55.0312 76.1625 53.9438 73.4249 52.05C84.3749 52.1438 85.0499 51.1875 89.6437 48.9C79.9312 49.6125 73.7624 49.4437 70.2749 45.3187Z" fill="#F4CC82"/>
</svg>
