<svg width="96" height="96" viewBox="0 0 96 96" fill="none" xmlns="http://www.w3.org/2000/svg">
<path d="M48 8C42.7471 8 37.5457 9.03463 32.6927 11.0448C27.8396 13.055 23.4301 16.0014 19.7157 19.7157C12.2143 27.2172 8 37.3913 8 48C8 58.6087 12.2143 68.7828 19.7157 76.2843C23.4301 79.9986 27.8396 82.945 32.6927 84.9552C37.5457 86.9654 42.7471 88 48 88C58.6087 88 68.7828 83.7857 76.2843 76.2843C83.7857 68.7828 88 58.6087 88 48C88 42.7471 86.9654 37.5457 84.9552 32.6927C82.945 27.8396 79.9986 23.4301 76.2843 19.7157C72.5699 16.0014 68.1604 13.055 63.3073 11.0448C58.4543 9.03463 53.2529 8 48 8ZM48 80C39.5131 80 31.3737 76.6286 25.3726 70.6274C19.3714 64.6263 16 56.4869 16 48C16 39.5131 19.3714 31.3737 25.3726 25.3726C31.3737 19.3714 39.5131 16 48 16C56.4869 16 64.6263 19.3714 70.6274 25.3726C76.6286 31.3737 80 39.5131 80 48C80 56.4869 76.6286 64.6263 70.6274 70.6274C64.6263 76.6286 56.4869 80 48 80ZM40 38C40 41.2 37.2 44 34 44C30.8 44 28 41.2 28 38C28 34.8 30.8 32 34 32C37.2 32 40 34.8 40 38ZM48 68.92C41 68.92 34.84 66 31.24 61.68L36.92 56C38.72 58.88 43 60.92 48 60.92C53 60.92 57.28 58.88 59.08 56L64.76 61.68C61.16 66 55 68.92 48 68.92ZM68 40H52V36H68V40Z" fill="#F4CC82"/>
</svg>
